<?xml version="1.0" encoding="utf-8"?>
<!-- Generator: Adobe Illustrator 24.0.1, SVG Export Plug-In . SVG Version: 6.00 Build 0)  -->
<svg version="1.1" id="Capa_1" xmlns="http://www.w3.org/2000/svg" xmlns:xlink="http://www.w3.org/1999/xlink" x="0px" y="0px"
	 viewBox="0 0 365 364.5" style="enable-background:new 0 0 365 364.5;" xml:space="preserve">
<style type="text/css">
	.st0{fill:#EF4444;}
	.st1{fill:#FFFFFF;}
	.st2{fill:#3B82F6;}
	.st3{fill:#34D399;}
	.st4{fill:#7C3AED;}
	.st5{fill:#FBBF24;}
	.st6{fill:#2B2B2B;}
</style>
<circle class="st0" cx="182.6" cy="181.7" r="179.8"/>
<path class="st1" d="M258.4,151.5h-45.6v-45.6c0-2.6-2.1-4.7-4.7-4.7h-51.1c-2.6,0-4.7,2.1-4.7,4.7v45.6h-45.6
	c-2.6,0-4.7,2.1-4.7,4.7v51.1c0,2.6,2.1,4.7,4.7,4.7h45.6v45.6c0,2.6,2.1,4.7,4.7,4.7h51.1c2.6,0,4.7-2.1,4.7-4.7c0,0,0,0,0,0V212
	h45.6c2.6,0,4.7-2.1,4.7-4.7l0,0v-51.1C263.2,153.6,261.1,151.5,258.4,151.5L258.4,151.5z"/>
<circle class="st2" cx="182.6" cy="181.9" r="179.8"/>
<path class="st1" d="M132.3,165.7l-46.9,37.8c-1,0.8-1.5,1.9-1.5,3.1v43.8c0,2.2,1.8,4,4,4h46.9c2.2,0,4-1.8,4-4v-81.6
	c0-1.6-0.9-3-2.3-3.6C135.1,164.6,133.5,164.8,132.3,165.7z M130.8,246.4H92v-37.9l38.8-31.3V246.4z"/>
<path class="st1" d="M165.9,141.3l-12.1,7.6c-1.2,0.7-1.9,2-1.9,3.4v98.2c0,2.2,1.8,4,4,4h46.9c2.2,0,4-1.8,4-4V181
	c0-1-0.4-2-1.1-2.8l-34.8-36.3C169.6,140.5,167.5,140.3,165.9,141.3z M198.8,246.5H160v-92l7.4-4.6l31.4,32.7V246.5z"/>
<path class="st1" d="M251.8,150.1l-30.7,30.7c-0.5,0.5-0.8,1.2-0.8,2v68.9c0,1.6,1.3,2.8,2.8,2.8h30.7c1.6,0,2.8-1.3,2.8-2.8v-99.6
	c0-1.6-1.3-2.8-2.8-2.8C253.1,149.3,252.4,149.6,251.8,150.1z M251,248.9h-25.1V184l25.1-25.1V248.9z"/>
<path class="st1" d="M278.2,105.8l-66.4,48.9l-38.7-40.5c-1.5-1.5-3.9-1.8-5.7-0.7l-85.9,59.7c-5,3.4-0.2,11.7,4.8,8.2
	c27.6-19.2,55.2-38.4,82.8-57.6l38.7,40.6c1.3,1.4,4.1,1.9,5.7,0.7c23.1-17,46.3-34,69.4-51C287.9,110.4,283.2,102.2,278.2,105.8z"
	/>
<circle class="st3" cx="183.7" cy="180.9" r="180.9"/>
<path class="st1" d="M267.9,251.1c10.2,0,18.5-8.3,18.6-18.5l0.3-102.7c0-10.3-8.3-18.6-18.5-18.6l-168.7-0.5h-0.1
	c-10.2,0-18.5,8.3-18.6,18.5l-0.4,102.6c0,10.3,8.2,18.6,18.5,18.6c0,0,0,0,0,0L267.9,251.1L267.9,251.1z M115.8,235.1h-5.7V235
	h-0.4c-5.2,0-9.4-4.2-9.4-9.4c0,0,0,0,0,0l0.3-89.8c0-5.2,4.2-9.4,9.4-9.4l0,0l147.5,0.5c5.2,0,9.4,4.2,9.4,9.4l-0.3,89.8
	c0,5.2-4.2,9.4-9.4,9.4l0,0L115.8,235.1L115.8,235.1z"/>
<path class="st1" d="M246.6,141.7h-39.1c-1.1,0-2,0.9-2,2v52c0,1.1,0.9,2,2,2h39.1c1.1,0,2-0.9,2-2v-52
	C248.6,142.6,247.7,141.8,246.6,141.7z M244.6,193.7h-35.2v-48.1h35.2V193.7z"/>
<path class="st1" d="M119.2,197.6h60.6c2.2,0,3.9-1.8,3.9-3.9s-1.8-3.9-3.9-3.9h-60.6c-2.2,0-3.9,1.8-3.9,3.9S117,197.6,119.2,197.6
	z"/>
<path class="st1" d="M208.1,208.4h-89c-2.2,0-3.9,1.8-3.9,3.9s1.8,3.9,3.9,3.9h89c2.2,0,3.9-1.8,3.9-3.9S210.3,208.4,208.1,208.4z"
	/>
<circle class="st4" cx="182.2" cy="182.2" r="182.2"/>
<path class="st1" d="M182.2,283c55.7,0,100.8-45.1,100.8-100.8S237.9,81.4,182.2,81.4S81.4,126.5,81.4,182.2l0,0
	C81.5,237.8,126.6,282.9,182.2,283z M182.2,102.7c43.9,0,79.5,35.6,79.5,79.5s-35.6,79.5-79.5,79.5s-79.5-35.6-79.5-79.5l0,0
	C102.8,138.3,138.3,102.7,182.2,102.7L182.2,102.7z"/>
<path class="st1" d="M160.5,234.5c0.7,0.4,1.4,0.6,2.2,0.6c0.9,0,1.9-0.3,2.6-0.8l71.4-48.1c2.2-1.5,2.7-4.4,1.3-6.6
	c-0.3-0.5-0.8-0.9-1.3-1.3l-71.4-48.1c-2.2-1.5-5.1-0.9-6.5,1.3c-0.5,0.8-0.8,1.7-0.8,2.6v96.2C158,232,159,233.6,160.5,234.5z
	 M167.4,142.9l58.2,39.2l-58.2,39.2V142.9z"/>
<circle class="st5" cx="182.8" cy="182.2" r="182.2"/>
<path class="st1" d="M271,131.1v-0.9h-4.1c-1.5-3.7-7-8.2-29.8-11.8c-17.2-2.7-40.1-4.2-64.4-4.2s-47.1,1.5-64.4,4.2
	c-23.1,3.6-28.5,8.2-29.9,11.9h-0.8v5.1c0,33.5,12.4,65,34,86.7c-17.1,4.6-25.8,11-25.8,18.9c0,20.5,57.9,25.9,88.5,25.9
	s88.5-5.4,88.5-25.9c0-8-8.7-14.3-25.8-19c1.2-1.2,2.3-2.4,3.4-3.5c5.6,0.9,11.3,1.4,17,1.4c16,0,29-4.1,38.6-12.1
	c10.7-9,16.4-22.3,16.4-38.5C312.3,144.8,290.3,133.4,271,131.1z M269.9,152.6c7.9,2.2,16.7,7.2,16.7,18.6c0,9.3-3.1,16.8-9,21.7
	c-5.6,4.7-13.5,7-23.5,6.9C262.5,185.3,267.8,169.3,269.9,152.6z M172.7,123.8c45.1,0,76.2,5.1,84,9.2c-7.8,4.1-38.8,9.3-84,9.3
	s-76.2-5.1-84-9.3C96.5,129,127.5,123.8,172.7,123.8z M253.3,241.2c0,5.8-30,16.4-79,16.4s-79-10.6-79-16.4c0-2.3,6.6-7.2,24.8-11.2
	c16,12.8,34.8,19.6,54.2,19.6s38.1-6.8,54.1-19.6C246.6,234,253.3,238.9,253.3,241.2L253.3,241.2z M174.3,240
	c-45.9,0-83.8-42.6-87-97.3c4.9,1.9,11.8,3.6,21,5c17.2,2.7,40.1,4.2,64.4,4.2s47.1-1.5,64.4-4.2c11.5-1.8,19.5-3.9,24.3-6.5
	C258.9,196.8,221,240,174.3,240L174.3,240z M289.8,200.7c-9.7,8.1-24.3,11.3-42.4,9.4l0.8-1.1c2.6,0.2,4.7,0.4,6.6,0.4
	c1.5,0,3,0,4.4-0.1c10-0.7,18.2-3.7,24.6-9c6.1-5.2,10.2-12.4,11.6-20.3c0.5-2.9,0.8-5.8,0.8-8.7c0-19.5-17-26.1-25.4-28.2
	c0-0.7,0.1-1.4,0.1-2.1c4.8,0.7,9.6,2,14.1,3.9c11.8,5.1,17.8,13.4,17.8,24.8C302.8,182.9,298.3,193.6,289.8,200.7z"/>
<circle class="st6" cx="182.2" cy="182.2" r="182.2"/>
<path class="st1" d="M243.6,128.4c-8.1-3.1-15.8-2.6-23.3-0.8c0.4-0.5,0.9-0.9,1.4-1.4c8.3-10.1,11.2-25.3,7-37.7
	c-0.1-0.2-0.2-0.4-0.3-0.6c0-1.2-1-2.1-2.1-2.1c-0.1,0-0.2,0-0.3,0c-19.5,1.8-36.1,15.1-42.1,33.8c-4.4-13.1-14.2-25.4-24.5-33.1
	c-0.6-0.5-1.4-0.6-2.1-0.3l-0.2,0.1c-0.1,0.1-0.3,0.2-0.4,0.3c-0.1,0.1-0.2,0.1-0.3,0.2c-3.9,4.4-6,11-7.5,16.6
	c-0.2,0.8,0,1.6,0.5,2.2c0.3,0.4,0.7,0.7,1.2,0.9c13.9,4.2,24.6,15.3,28.4,29.3c-15.6-2.6-28.9-12.5-45.8-10.4
	c-16.3,2-29,13.3-35.7,27.9c-17.5,37.7,2.7,83,27.3,112.7c12.9,15.5,24.9,13.9,42.5,8c12.8-4.2,21.5-1.8,33.9,1.3
	c6.9,1.7,14.7,3.5,21.8,2.4c17.1-2.7,28.2-23.6,34.4-37.8c9.1-21,16.1-42.5,15.4-65.6C272.3,155.5,262.4,135.6,243.6,128.4z
	 M224.2,91.2c3.1,11.1,0.4,25-7.7,33.3c-7.5,7.7-19.1,10.3-29.6,11.8c0.1-0.2,0.1-0.4,0.1-0.7C185.4,113.9,202.7,94,224.2,91.2z
	 M154.3,102.8c0.9-3.7,2.4-7.1,4.3-10.3c9.5,7.7,18.3,20,21.4,32.5C174.5,114.6,165.3,106.8,154.3,102.8z M230.3,261.4
	c-15.5,14.5-32.8-0.9-50.1-0.2c-8.3,0.3-15.6,4.7-23.5,6.7c-14.1,3.5-22.5-6.7-29.5-17.4c-11.9-18-22.9-37.6-24.3-59.6
	s8.2-49.7,32.6-54.2c17.5-3.2,30.9,8.5,47.6,9.7c0.3,0.1,0.7,0.1,1,0.1c4.8-0.2,9.5-1,14.1-2.6c2.2-0.6,4.4-1.3,6.6-2.2
	c9.9-3.4,19.6-6.9,29.9-4.1c27.9,7.6,29.5,42.3,24.2,65.4C254.2,222.9,245.5,247.2,230.3,261.4L230.3,261.4z"/>
<path class="st1" d="M137.1,145.9c-17.1,7-25.7,28.6-22.8,45.9c0.5,3.2,5.4,1.8,4.9-1.4c-2.4-14.3,5-33.8,19.3-39.7
	C141.4,149.6,140.1,144.7,137.1,145.9z"/>
<path class="st1" d="M117.7,202.3c-3.2,0-3.3,5.1,0,5.1S120.9,202.3,117.7,202.3z"/>
</svg>
