<?xml version="1.0" encoding="utf-8"?>
<!-- Generator: Adobe Illustrator 24.0.1, SVG Export Plug-In . SVG Version: 6.00 Build 0)  -->
<svg version="1.1" id="Capa_1" xmlns="http://www.w3.org/2000/svg" xmlns:xlink="http://www.w3.org/1999/xlink" x="0px" y="0px"
	 viewBox="0 0 359.6 359.6" style="enable-background:new 0 0 359.6 359.6;" xml:space="preserve">
<style type="text/css">
	.st0{fill:#2B2B2B;}
	.st1{fill:#FFFFFF;}
</style>
<circle class="st0" cx="179.8" cy="179.8" r="179.8"/>
<path class="st1" d="M255.7,149.6h-45.6V104c0-2.6-2.1-4.7-4.7-4.7h-51.1c-2.6,0-4.7,2.1-4.7,4.7v45.6H104c-2.6,0-4.7,2.1-4.7,4.7
	v51.1c0,2.6,2.1,4.7,4.7,4.7h45.6v45.6c0,2.6,2.1,4.7,4.7,4.7h51.1c2.6,0,4.7-2.1,4.7-4.7c0,0,0,0,0,0v-45.6h45.6
	c2.6,0,4.7-2.1,4.7-4.7l0,0v-51.1C260.4,151.7,258.3,149.6,255.7,149.6L255.7,149.6z"/>
</svg>
