<?xml version="1.0" encoding="utf-8"?>
<!-- Generator: Adobe Illustrator 24.0.1, SVG Export Plug-In . SVG Version: 6.00 Build 0)  -->
<svg version="1.1" id="Capa_1" xmlns="http://www.w3.org/2000/svg" xmlns:xlink="http://www.w3.org/1999/xlink" x="0px" y="0px"
	 viewBox="0 0 361.8 361.8" style="enable-background:new 0 0 361.8 361.8;" xml:space="preserve">
<style type="text/css">
	.st0{fill:#EF4444;}
	.st1{fill:#FFFFFF;}
	.st2{fill:#3B82F6;}
	.st3{fill:#2B2B2B;}
</style>
<circle class="st0" cx="179.8" cy="181.7" r="179.8"/>
<path class="st1" d="M255.7,151.5h-45.6v-45.6c0-2.6-2.1-4.7-4.7-4.7h-51.1c-2.6,0-4.7,2.1-4.7,4.7v45.6H104c-2.6,0-4.7,2.1-4.7,4.7
	v51.1c0,2.6,2.1,4.7,4.7,4.7h45.6v45.6c0,2.6,2.1,4.7,4.7,4.7h51.1c2.6,0,4.7-2.1,4.7-4.7c0,0,0,0,0,0V212h45.6
	c2.6,0,4.7-2.1,4.7-4.7l0,0v-51.1C260.4,153.6,258.3,151.5,255.7,151.5L255.7,151.5z"/>
<circle class="st2" cx="179.8" cy="181.9" r="179.8"/>
<path class="st1" d="M129.5,165.7l-46.9,37.8c-1,0.8-1.5,1.9-1.5,3.1v43.8c0,2.2,1.8,4,4,4H132c2.2,0,4-1.8,4-4v-81.6
	c0-1.6-0.9-3-2.3-3.6C132.3,164.6,130.7,164.8,129.5,165.7z M128,246.4H89.2v-37.9l38.8-31.3V246.4z"/>
<path class="st1" d="M163.1,141.3l-12.1,7.6c-1.2,0.7-1.9,2-1.9,3.4v98.2c0,2.2,1.8,4,4,4H200c2.2,0,4-1.8,4-4V181
	c0-1-0.4-2-1.1-2.8l-34.8-36.3C166.8,140.5,164.7,140.3,163.1,141.3z M196,246.5h-38.8v-92l7.4-4.6l31.4,32.7V246.5z"/>
<path class="st1" d="M249.1,150.1l-30.7,30.7c-0.5,0.5-0.8,1.2-0.8,2v68.9c0,1.6,1.3,2.8,2.8,2.8h30.7c1.6,0,2.8-1.3,2.8-2.8v-99.6
	c0-1.6-1.3-2.8-2.8-2.8C250.3,149.3,249.6,149.6,249.1,150.1z M248.2,248.9h-25.1V184l25.1-25.1V248.9z"/>
<path class="st1" d="M275.5,105.8L209,154.7l-38.7-40.5c-1.5-1.5-3.9-1.8-5.7-0.7l-85.9,59.7c-5,3.4-0.2,11.7,4.8,8.2
	c27.6-19.2,55.2-38.4,82.8-57.6l38.7,40.6c1.3,1.4,4.1,1.9,5.7,0.7c23.1-17,46.3-34,69.4-51C285.1,110.4,280.4,102.2,275.5,105.8z"
	/>
<circle class="st3" cx="180.9" cy="180.9" r="180.9"/>
<path class="st1" d="M265.1,251.1c10.2,0,18.5-8.3,18.6-18.5l0.3-102.7c0-10.3-8.3-18.6-18.5-18.6l-168.7-0.5h-0.1
	c-10.2,0-18.5,8.3-18.6,18.5l-0.4,102.6c0,10.3,8.2,18.6,18.5,18.6c0,0,0,0,0,0L265.1,251.1L265.1,251.1z M113.1,235.1h-5.7V235H107
	c-5.2,0-9.4-4.2-9.4-9.4c0,0,0,0,0,0l0.3-89.8c0-5.2,4.2-9.4,9.4-9.4l0,0l147.5,0.5c5.2,0,9.4,4.2,9.4,9.4l-0.3,89.8
	c0,5.2-4.2,9.4-9.4,9.4l0,0L113.1,235.1L113.1,235.1z"/>
<path class="st1" d="M243.8,141.7h-39.1c-1.1,0-2,0.9-2,2v52c0,1.1,0.9,2,2,2h39.1c1.1,0,2-0.9,2-2v-52
	C245.8,142.6,244.9,141.8,243.8,141.7z M241.8,193.7h-35.2v-48.1h35.2V193.7z"/>
<path class="st1" d="M116.4,197.6H177c2.2,0,3.9-1.8,3.9-3.9s-1.8-3.9-3.9-3.9h-60.6c-2.2,0-3.9,1.8-3.9,3.9
	S114.3,197.6,116.4,197.6z"/>
<path class="st1" d="M205.4,208.4h-89c-2.2,0-3.9,1.8-3.9,3.9s1.8,3.9,3.9,3.9h89c2.2,0,3.9-1.8,3.9-3.9S207.5,208.4,205.4,208.4z"
	/>
</svg>
