<?xml version="1.0" encoding="utf-8"?>
<!-- Generator: Adobe Illustrator 24.0.1, SVG Export Plug-In . SVG Version: 6.00 Build 0)  -->
<svg version="1.1" id="Capa_1" xmlns="http://www.w3.org/2000/svg" xmlns:xlink="http://www.w3.org/1999/xlink" x="0px" y="0px"
	 viewBox="0 0 365 364.5" style="enable-background:new 0 0 365 364.5;" xml:space="preserve">
<style type="text/css">
	.st0{fill:#EF4444;}
	.st1{fill:#FFFFFF;}
	.st2{fill:#3B82F6;}
	.st3{fill:#34D399;}
	.st4{fill:#7C3AED;}
	.st5{fill:#2B2B2B;}
</style>
<circle class="st0" cx="182.5" cy="181.7" r="179.8"/>
<path class="st1" d="M258.4,151.5h-45.6v-45.6c0-2.6-2.1-4.7-4.7-4.7H157c-2.6,0-4.7,2.1-4.7,4.7v45.6h-45.6c-2.6,0-4.7,2.1-4.7,4.7
	v51.1c0,2.6,2.1,4.7,4.7,4.7h45.6v45.6c0,2.6,2.1,4.7,4.7,4.7h51.1c2.6,0,4.7-2.1,4.7-4.7c0,0,0,0,0,0V212h45.6
	c2.6,0,4.7-2.1,4.7-4.7l0,0v-51.1C263.1,153.6,261,151.5,258.4,151.5L258.4,151.5z"/>
<circle class="st2" cx="182.5" cy="181.9" r="179.8"/>
<path class="st1" d="M132.2,165.7l-46.9,37.8c-1,0.8-1.5,1.9-1.5,3.1v43.8c0,2.2,1.8,4,4,4h46.9c2.2,0,4-1.8,4-4v-81.6
	c0-1.6-0.9-3-2.3-3.6C135,164.6,133.4,164.8,132.2,165.7z M130.7,246.4H91.9v-37.9l38.8-31.3V246.4z"/>
<path class="st1" d="M165.9,141.3l-12.1,7.6c-1.2,0.7-1.9,2-1.9,3.4v98.2c0,2.2,1.8,4,4,4h46.9c2.2,0,4-1.8,4-4V181
	c0-1-0.4-2-1.1-2.8l-34.8-36.3C169.6,140.5,167.5,140.3,165.9,141.3z M198.7,246.5h-38.8v-92l7.4-4.6l31.4,32.7V246.5z"/>
<path class="st1" d="M251.8,150.1l-30.7,30.7c-0.5,0.5-0.8,1.2-0.8,2v68.9c0,1.6,1.3,2.8,2.8,2.8h30.7c1.6,0,2.8-1.3,2.8-2.8v-99.6
	c0-1.6-1.3-2.8-2.8-2.8C253,149.3,252.3,149.6,251.8,150.1z M251,248.9h-25.1V184l25.1-25.1V248.9z"/>
<path class="st1" d="M278.2,105.8l-66.5,48.9l-38.7-40.5c-1.5-1.5-3.9-1.8-5.7-0.7l-85.9,59.7c-5,3.4-0.2,11.7,4.8,8.2
	c27.6-19.2,55.2-38.4,82.8-57.6l38.7,40.6c1.3,1.4,4.1,1.9,5.7,0.7c23.1-17,46.3-34,69.4-51C287.8,110.4,283.1,102.2,278.2,105.8z"
	/>
<circle class="st3" cx="183.6" cy="180.9" r="180.9"/>
<path class="st1" d="M267.8,251.1c10.2,0,18.5-8.3,18.6-18.5l0.3-102.7c0-10.3-8.3-18.6-18.5-18.6l-168.7-0.5h-0.1
	c-10.2,0-18.5,8.3-18.6,18.5l-0.4,102.6c0,10.3,8.2,18.6,18.5,18.6c0,0,0,0,0,0L267.8,251.1L267.8,251.1z M115.8,235.1h-5.7V235
	h-0.4c-5.2,0-9.4-4.2-9.4-9.4c0,0,0,0,0,0l0.3-89.8c0-5.2,4.2-9.4,9.4-9.4l0,0l147.5,0.5c5.2,0,9.4,4.2,9.4,9.4l-0.3,89.8
	c0,5.2-4.2,9.4-9.4,9.4l0,0L115.8,235.1L115.8,235.1z"/>
<path class="st1" d="M246.5,141.7h-39.1c-1.1,0-2,0.9-2,2v52c0,1.1,0.9,2,2,2h39.1c1.1,0,2-0.9,2-2v-52
	C248.5,142.6,247.6,141.8,246.5,141.7z M244.5,193.7h-35.2v-48.1h35.2V193.7z"/>
<path class="st1" d="M119.1,197.6h60.6c2.2,0,3.9-1.8,3.9-3.9s-1.8-3.9-3.9-3.9h-60.6c-2.2,0-3.9,1.8-3.9,3.9S117,197.6,119.1,197.6
	z"/>
<path class="st1" d="M208.1,208.4h-89c-2.2,0-3.9,1.8-3.9,3.9s1.8,3.9,3.9,3.9h89c2.2,0,3.9-1.8,3.9-3.9S210.2,208.4,208.1,208.4z"
	/>
<circle class="st4" cx="182.2" cy="182.2" r="182.2"/>
<path class="st1" d="M182.2,283c55.7,0,100.8-45.1,100.8-100.8S237.9,81.4,182.2,81.4S81.4,126.5,81.4,182.2l0,0
	C81.4,237.8,126.5,282.9,182.2,283z M182.2,102.7c43.9,0,79.5,35.6,79.5,79.5s-35.6,79.5-79.5,79.5s-79.5-35.6-79.5-79.5l0,0
	C102.7,138.3,138.3,102.7,182.2,102.7L182.2,102.7z"/>
<path class="st1" d="M160.4,234.5c0.7,0.4,1.4,0.6,2.2,0.6c0.9,0,1.9-0.3,2.6-0.8l71.4-48.1c2.2-1.5,2.7-4.4,1.3-6.6
	c-0.3-0.5-0.8-0.9-1.3-1.3l-71.4-48.1c-2.2-1.5-5.1-0.9-6.5,1.3c-0.5,0.8-0.8,1.7-0.8,2.6v96.2C157.9,232,158.9,233.6,160.4,234.5z
	 M167.4,142.9l58.2,39.2l-58.2,39.2V142.9z"/>
<circle class="st5" cx="182.7" cy="182.2" r="182.2"/>
<path class="st1" d="M271,131.1v-0.9h-4.1c-1.5-3.7-7-8.2-29.8-11.8c-17.2-2.7-40.1-4.2-64.4-4.2s-47.1,1.5-64.4,4.2
	c-23.1,3.6-28.5,8.2-29.9,11.9h-0.8v5.1c0,33.5,12.4,65,34,86.7c-17.1,4.6-25.8,11-25.8,18.9c0,20.5,57.9,25.9,88.5,25.9
	s88.5-5.4,88.5-25.9c0-8-8.7-14.3-25.8-19c1.2-1.2,2.3-2.4,3.4-3.5c5.6,0.9,11.3,1.4,17,1.4c16,0,29-4.1,38.6-12.1
	c10.7-9,16.4-22.3,16.4-38.5C312.3,144.8,290.2,133.4,271,131.1z M269.9,152.6c7.9,2.2,16.7,7.2,16.7,18.6c0,9.3-3.1,16.8-9,21.7
	c-5.6,4.7-13.5,7-23.5,6.9C262.4,185.3,267.8,169.3,269.9,152.6z M172.6,123.8c45.1,0,76.2,5.1,84,9.2c-7.8,4.1-38.8,9.3-84,9.3
	s-76.2-5.1-84-9.3C96.4,129,127.5,123.8,172.6,123.8z M253.2,241.2c0,5.8-30,16.4-79,16.4s-79-10.6-79-16.4c0-2.3,6.6-7.2,24.8-11.2
	c16,12.8,34.8,19.6,54.2,19.6c19.4,0,38.1-6.8,54.1-19.6C246.5,234,253.2,238.9,253.2,241.2L253.2,241.2z M174.2,240
	c-45.9,0-83.8-42.6-87-97.3c4.9,1.9,11.8,3.6,21,5c17.2,2.7,40.1,4.2,64.4,4.2s47.1-1.5,64.4-4.2c11.5-1.8,19.5-3.9,24.3-6.5
	C258.9,196.8,221,240,174.2,240L174.2,240z M289.8,200.7c-9.7,8.1-24.3,11.3-42.4,9.4l0.8-1.1c2.6,0.2,4.7,0.4,6.6,0.4
	c1.5,0,3,0,4.4-0.1c10-0.7,18.2-3.7,24.6-9c6.1-5.2,10.2-12.4,11.6-20.3c0.5-2.9,0.8-5.8,0.8-8.7c0-19.5-17-26.1-25.4-28.2
	c0-0.7,0.1-1.4,0.1-2.1c4.8,0.7,9.6,2,14.1,3.9c11.8,5.1,17.8,13.4,17.8,24.8C302.7,182.9,298.2,193.6,289.8,200.7z"/>
</svg>
